<?xml version="1.0" encoding="UTF-8" standalone="no"?>
<!-- Created with Inkscape (http://www.inkscape.org/) -->

<svg
   xmlns:dc="http://purl.org/dc/elements/1.1/"
   xmlns:cc="http://creativecommons.org/ns#"
   xmlns:rdf="http://www.w3.org/1999/02/22-rdf-syntax-ns#"
   xmlns:svg="http://www.w3.org/2000/svg"
   xmlns="http://www.w3.org/2000/svg"
   version="1.1"
   width="1024"
   height="160"
   id="svg3126">
  <defs
     id="defs3128">
    <clipPath
       id="clipPath3019">
      <path
         d="m 531.59,63.126 -149.647,0 0,-22.665 149.647,0 0,22.665 z"
         id="path3021" />
    </clipPath>
  </defs>
  <metadata
     id="metadata3131">
    <rdf:RDF>
      <cc:Work
         rdf:about="">
        <dc:format>image/svg+xml</dc:format>
        <dc:type
           rdf:resource="http://purl.org/dc/dcmitype/StillImage" />
        <dc:title></dc:title>
      </cc:Work>
    </rdf:RDF>
  </metadata>
  <g
     transform="translate(0,-608)"
     id="layer1">
    <g
       transform="matrix(6.7544528,0,0,-6.7544528,-2573.2077,1037.8373)"
       id="g3087">
      <path
         d="m 438.094,40.974 c -3.24,0 -5.702,0.686 -7.801,2.804 l 2.702,2.69 c 1.349,-1.344 3.178,-1.794 5.159,-1.794 2.461,0 3.781,0.928 3.781,2.629 0,0.745 -0.211,1.375 -0.661,1.792 -0.419,0.385 -0.9,0.596 -1.889,0.745 l -2.58,0.358 c -1.831,0.268 -3.183,0.835 -4.141,1.762 -1.021,1.014 -1.53,2.389 -1.53,4.178 0,3.793 2.819,6.449 7.441,6.449 2.94,0 5.07,-0.718 6.9,-2.48 l -2.64,-2.596 c -1.35,1.283 -2.971,1.464 -4.38,1.464 -2.22,0 -3.301,-1.223 -3.301,-2.686 0,-0.538 0.18,-1.105 0.63,-1.524 0.42,-0.387 1.11,-0.716 1.981,-0.835 l 2.52,-0.36 c 1.949,-0.268 3.18,-0.804 4.08,-1.641 1.14,-1.072 1.651,-2.627 1.651,-4.507 0,-4.119 -3.453,-6.448 -7.922,-6.448"
         id="path3009"
         style="fill:#0079c2;fill-opacity:1;fill-rule:nonzero;stroke:none" />
      <path
         d="m 458.357,40.974 c -3.24,0 -5.699,0.686 -7.8,2.804 l 2.701,2.69 c 1.348,-1.344 3.179,-1.794 5.16,-1.794 2.461,0 3.779,0.928 3.779,2.629 0,0.745 -0.207,1.375 -0.659,1.792 -0.421,0.385 -0.9,0.596 -1.89,0.745 l -2.582,0.358 c -1.828,0.268 -3.178,0.835 -4.138,1.762 -1.021,1.014 -1.532,2.389 -1.532,4.178 0,3.793 2.821,6.449 7.441,6.449 2.939,0 5.072,-0.718 6.902,-2.48 l -2.643,-2.596 c -1.349,1.283 -2.968,1.464 -4.378,1.464 -2.222,0 -3.3,-1.223 -3.3,-2.686 0,-0.538 0.178,-1.105 0.628,-1.524 0.421,-0.387 1.111,-0.716 1.981,-0.835 l 2.522,-0.36 c 1.95,-0.268 3.179,-0.804 4.08,-1.641 1.139,-1.072 1.648,-2.627 1.648,-4.507 0,-4.119 -3.45,-6.448 -7.92,-6.448"
         id="path3011"
         style="fill:#0079c2;fill-opacity:1;fill-rule:nonzero;stroke:none" />
      <path
         d="m 479.476,56.138 -2.703,-7.73 5.311,0 -2.608,7.73 z m 4.98,-14.987 -1.261,3.764 -7.592,0 -1.291,-3.764 -4.347,0 7.768,21.258 3.273,0 7.798,-21.258 -4.348,0"
         id="path3013"
         style="fill:#0079c2;fill-opacity:1;fill-rule:nonzero;stroke:none" />
      <g
         id="g3077">
        <path
           d="m 390.462,50.081 -4.349,0 0,-5.227 4.349,0 c 1.891,0 2.791,1.195 2.791,2.629 0,1.433 -0.9,2.598 -2.791,2.598 z m -0.268,8.625 -4.081,0 0,-4.896 4.081,0 c 1.77,0 2.76,0.986 2.76,2.449 0,1.462 -0.99,2.447 -2.76,2.447 z m 0.69,-17.555 -8.941,0 0,21.258 8.579,0 c 4.17,0 6.601,-2.329 6.601,-5.972 0,-2.358 -1.56,-3.882 -2.64,-4.389 1.289,-0.596 2.94,-1.938 2.94,-4.777 0,-3.968 -2.731,-6.12 -6.539,-6.12"
           id="path3007"
           style="fill:#0079c2;fill-opacity:1;fill-rule:nonzero;stroke:none" />
        <g
           id="g3015">
          <g
             clip-path="url(#clipPath3019)"
             id="g3017">
            <path
               d="m 502.076,58.706 -3.932,0 0,-5.613 3.932,0 c 1.83,0 3.029,1.165 3.029,2.806 0,1.643 -1.199,2.807 -3.029,2.807 z m 3.239,-17.555 -4.171,8.48 -3,0 0,-8.48 -4.17,0 0,21.258 8.371,0 c 4.349,0 6.931,-2.957 6.931,-6.51 0,-2.985 -1.829,-4.835 -3.902,-5.58 l 4.772,-9.168 -4.831,0"
               id="path3023"
               style="fill:#0079c2;fill-opacity:1;fill-rule:nonzero;stroke:none" />
            <path
               d="m 526.513,57.392 c -0.719,0.864 -1.681,1.314 -3.121,1.314 l -3.149,0 0,-13.852 3.149,0 c 1.44,0 2.402,0.448 3.121,1.315 0.78,0.954 0.901,2.478 0.901,5.699 0,3.226 -0.121,4.569 -0.901,5.524 z m 2.911,-14.209 c -1.41,-1.404 -3.42,-2.032 -5.641,-2.032 l -7.71,0 0,21.258 7.71,0 c 2.221,0 4.231,-0.628 5.641,-2.03 2.4,-2.388 2.16,-5.315 2.16,-8.511 0,-3.19 0.24,-6.296 -2.16,-8.685"
               id="path3025"
               style="fill:#0079c2;fill-opacity:1;fill-rule:nonzero;stroke:none" />
            <path
               d="m 418.268,58.016 2.699,3.012 c -4.43,3.145 -10.549,2.721 -14.5,-1.05 l 3.012,-2.67 c 2.45,2.144 6.044,2.419 8.789,0.708"
               id="path3027"
               style="fill:#a0c8ea;fill-opacity:1;fill-rule:nonzero;stroke:none" />
            <path
               d="m 420.412,47.606 3.012,-2.674 c 1.553,2.031 2.32,4.446 2.32,6.856 0,2.734 -0.986,5.459 -2.925,7.597 l -2.701,-3.01 c 2.023,-2.52 2.158,-6.105 0.294,-8.769"
               id="path3029"
               style="fill:#49a7de;fill-opacity:1;fill-rule:nonzero;stroke:none" />
            <path
               d="m 409.44,46.313 c -1.47,1.305 -2.343,3.104 -2.456,5.062 -0.082,1.42 0.246,2.801 0.931,4.012 l -3.044,2.701 c -1.371,-2.038 -2.04,-4.449 -1.897,-6.942 0.174,-3.024 1.522,-5.797 3.792,-7.816 4.288,-3.802 10.688,-3.784 14.95,-0.189 l -3.043,2.701 c -2.746,-1.974 -6.604,-1.863 -9.233,0.471"
               id="path3031"
               style="fill:#0079c2;fill-opacity:1;fill-rule:nonzero;stroke:none" />
          </g>
        </g>
      </g>
    </g>
  </g>
</svg>
