<?xml version="1.0" encoding="utf-8"?>
<!-- Generator: Adobe Illustrator 18.1.1, SVG Export Plug-In . SVG Version: 6.00 Build 0)  -->
<!DOCTYPE svg PUBLIC "-//W3C//DTD SVG 1.1//EN" "http://www.w3.org/Graphics/SVG/1.1/DTD/svg11.dtd">
<svg version="1.1" xmlns="http://www.w3.org/2000/svg" xmlns:xlink="http://www.w3.org/1999/xlink" x="0px" y="0px"
	 viewBox="0 0 621.6 157.2" enable-background="new 0 0 621.6 157.2" xml:space="preserve">
<g id="Hintergrund">
</g>
<g id="Hilfslinien_anzeigen">
</g>
<g id="Vordergrund">
	<path fill="#1A171B" d="M0,112.1l7.7-49.2l12.6,0l-7.7,49.2L0,112.1z"/>
	<path fill="#1A171B" d="M46.7,112.9c-7,0-12.5-1.3-16.1-5.3c-4.3-4.8-5.8-11-4.6-18.8c1-6.6,3-11.6,6.4-16.1
		c5.2-6.9,13.7-10.9,22.3-10.9c5.3,0,10.7,1.7,13.1,3.9l-6.7,7.9c-2.3-1.6-5-2.5-7.6-2.5c-2.9,0-6.4,1.3-8.3,3
		c-2.8,2.5-4.3,6.4-5.2,12c-1.1,7.1-1.2,11,0.3,13.5c1.6,2.8,4.3,4.4,8.5,4.4c3.2,0,5.7-0.7,9.2-2.9l4.3,7.1
		C57.7,111.3,52.9,112.9,46.7,112.9z"/>
	<path fill="#1A171B" d="M109.4,72.6l-12.1,0l-6.1,39.5l-12.4,0l6.1-39.5l-12.6,0l1.5-9.7l39.5,0L109.4,72.6z"/>
	<path fill="#969696" d="M127.5,113.2c-5.9,0-11.7-1.3-17.2-4.1l5.4-9.4c4.7,2.2,8.6,3.7,13.9,3.7c5.7,0,8.8-1.5,9.4-4.9
		c0.4-2.7-1.2-4.5-5.5-5.5l-5.9-1.5c-5.1-1.3-8.1-3.7-9.5-7c-1-2.4-1.2-4.9-0.8-7.6c1.4-9.1,10.5-15.7,22.2-15.7
		c6.6,0,13.8,2,17.9,5l-7,8.5c-4.2-2.5-8.3-3.7-12.1-3.7c-3.8,0-6.8,1.7-7.2,4.5c-0.4,2.4,0.5,3.4,4.4,4.4l6.3,1.6
		c8.2,2,12.7,6.8,11.5,14.3C151.6,106.4,141.4,113.2,127.5,113.2z"/>
	<path fill="#969696" d="M216.9,62.9l12.8,0l-21.1,49.6l-12.6,0l-1.6-17.3c-0.6-6.5-0.4-13.4-0.2-15.6c-0.7,2.4-2.8,9.4-5.1,15.6
		l-6.4,17.3l-13.1,0l-5.4-49.6l12.8,0l1.4,16c0.7,7.3,0.4,15.4,0.2,17.8c0.5-2.1,2.8-10.6,5.6-17.4l6.6-16.4l12.9,0l1.2,19.5
		c0.2,3.5,0,11,0,13.5c0.3-1.4,4-12.9,5.9-17.8L216.9,62.9z"/>
	<path fill="#969696" d="M231.8,112.1l7.7-49.2l12.6,0l-7.7,49.2L231.8,112.1z"/>
	<path fill="#969696" d="M298.3,72.4l-12.3,0l-6.3,39.9l-12.4,0l6.3-39.9l-12.6,0l1.3-9.3l39.9,0L298.3,72.4z"/>
	<path fill="#969696" d="M332.8,112.4l-33.7,0l1.3-8.3l23.2-28.1c1.1-1.3,2.1-2.4,3.2-3.5c-1.4,0.1-2.6,0.1-5.1,0.1l-16,0l3.9-9.5
		l33.3,0l-1.3,8.2l-23.2,28.4c-1.1,1.4-2,2.6-3,3.4c1.3-0.1,2.7-0.1,5-0.1l16.1,0L332.8,112.4z"/>
	<path fill="#969696" d="M345.4,112.2l7.7-49.2l30.9,0l-3.2,9.5l-17,0l-1.4,9.2l14.2,0l-1.5,9.6l-14.1,0l-1.7,10.9l19.2,0l-1.6,10
		L345.4,112.2z"/>
	<path fill="#969696" d="M414.8,112.2c-1.7-3.3-2.4-4.8-3.9-8.3c-4.3-10-5.1-11.6-6.5-11.6h-0.8l-3.1,19.8l-11.9,0l7.7-49.2l18.8,0
		c5.3,0,10.5,0.9,13.2,4.1c2.7,3.2,3.3,6.8,2.7,10.8c-1.1,6.9-6.8,12.6-12,13.7c2.7,3.8,9.3,18.4,10.2,20.6L414.8,112.2z M410.8,72
		l-4.2,0l-1.8,11.6l4,0c6.6,0,9-1.7,9.6-5.7C419,73.9,417.4,72,410.8,72z"/>
	<path fill="#969696" d="M464.5,112.2l-27.4,0l7.7-49.2l12.3,0l-6.1,39.3l18.6,0L464.5,112.2z"/>
	<path fill="#969696" d="M506.5,112.2l-2.1-10.5l-14.4,0l-5.1,10.5l-12.8,0l25.6-49.4l12.3,0l9.2,49.4L506.5,112.2z M501.7,74.4
		c-1.8,5-5.1,13-7.4,18.2l8.8,0C502.6,87.5,501.9,79.4,501.7,74.4z"/>
	<path fill="#969696" d="M557.9,81l2.6-18.1l11.2,0l-7.7,49.2l-12.4,0L545.8,92c-1.4-4.6-2.6-9-3.4-12.6c-0.4,3.9-1.4,10.6-1.8,13.9
		l-2.7,18.8l-11.4,0l7.7-49.2l13.2,0l6.5,19c1.4,4.2,2,7.2,2.8,11.4C556.9,88.8,557.3,84.5,557.9,81z"/>
	<path fill="#969696" d="M598.5,112c-2.1,0.3-4.6,0.3-8.3,0.3l-12.6,0l7.7-49.2l10.7,0c3.2,0,7.9,0,9.9,0.3
		c11.6,1.5,17.6,9.8,15.3,24.7C618.9,102.2,609.6,110.5,598.5,112z M600.6,72.1l-4.4,0l-4.8,30.6l5.8,0c4.3,0,8.6-3,10.3-13.7
		C609.2,78.3,608.1,72.1,600.6,72.1z"/>
	<path fill="#DA0216" d="M227.9,0C98.6,0,7.8,50.4,7.8,50.4s-1.2,1.5,4.1-0.1c21.9-6.6,103.8-32.4,218.2-32.4
		c109.2,0,195.7,24.6,222.9,32.8c6.4,1.9,4.9,0,4.9,0S357.3,0,227.9,0z"/>
	<g>
		<path fill="#1A171B" d="M114.8,132.2v0.1l-3.3,19c0,0.2-0.1,0.3-0.2,0.4c-0.1,0.1-0.2,0.2-0.4,0.2h-1.5c-0.1,0-0.2,0-0.3-0.1
			c-0.1-0.1-0.1-0.2-0.1-0.3v-0.1l3.3-19c0.1-0.3,0.3-0.5,0.6-0.5h1.5c0.1,0,0.2,0,0.3,0.1C114.7,132,114.8,132.1,114.8,132.2z"/>
		<path fill="#1A171B" d="M129.1,141c0,0.5,0,1-0.1,1.5l-1.6,8.9c0,0.2-0.1,0.3-0.2,0.4c-0.1,0.1-0.3,0.2-0.4,0.2h-1.3
			c-0.1,0-0.2,0-0.3-0.1c-0.1-0.1-0.1-0.2-0.1-0.3v-0.1l1.6-8.9c0.1-0.6,0.1-1.1,0.1-1.5c0-0.7-0.2-1.2-0.5-1.6
			c-0.4-0.3-1-0.5-2-0.5c-0.5,0-1.1,0.1-1.7,0.2s-1.3,0.4-2.1,0.8l-2,11.4c0,0.2-0.1,0.3-0.2,0.4c-0.1,0.1-0.3,0.2-0.4,0.2h-1.3
			c-0.1,0-0.2,0-0.3-0.1c-0.1-0.1-0.1-0.2-0.1-0.3v-0.1l2.4-13.8c0-0.2,0.1-0.3,0.2-0.4c0.1-0.1,0.3-0.2,0.4-0.2h1.3
			c0.3,0,0.4,0.1,0.4,0.4v0.1l-0.1,0.6c0.8-0.4,1.5-0.8,2.1-1c0.6-0.2,1.4-0.3,2.2-0.3c1.4,0,2.4,0.4,3.1,1.2
			C128.8,138.7,129.1,139.7,129.1,141z"/>
		<path fill="#1A171B" d="M141.8,131.8L141.8,131.8l-0.2,1c-0.1,0.3-0.2,0.4-0.5,0.4h-1.3c-0.4,0-0.8,0-1.1,0.1
			c-0.3,0.1-0.5,0.3-0.6,0.5c-0.2,0.3-0.3,0.7-0.4,1.2l-0.4,2h2.9c0.1,0,0.2,0,0.3,0.1c0.1,0.1,0.1,0.2,0.1,0.3v0.1l-0.2,0.9
			c-0.1,0.3-0.3,0.5-0.6,0.5H137l-2.4,13.6c-0.2,1-0.5,1.8-0.9,2.4c-0.4,0.5-0.9,0.9-1.5,1.1c-0.6,0.2-1.3,0.3-2.1,0.3
			c-0.6,0-1.1,0-1.6-0.1c-0.3-0.1-0.4-0.2-0.4-0.4v-0.1l0.2-0.9c0.1-0.3,0.2-0.4,0.6-0.4h1.3c0.4,0,0.8-0.1,1.1-0.2
			c0.3-0.1,0.5-0.3,0.6-0.6c0.2-0.3,0.3-0.7,0.4-1.2l2.4-13.6l-2.5-0.2c-0.3,0-0.4-0.2-0.4-0.4v-0.1l0.1-0.8c0-0.1,0.1-0.2,0.2-0.3
			c0.1-0.1,0.2-0.1,0.4-0.1h2.5l0.3-2c0.3-1.5,0.8-2.5,1.4-3c0.7-0.5,1.7-0.7,3-0.7c0.4,0,0.9,0.1,1.6,0.2
			C141.6,131.5,141.8,131.6,141.8,131.8z"/>
		<path fill="#1A171B" d="M153.8,141.9c0,0.5,0,1-0.1,1.5l-0.3,2.1c-0.7,4.4-3.1,6.6-7.2,6.6c-1.6,0-2.8-0.5-3.7-1.4
			c-0.9-0.9-1.3-2.2-1.3-3.7c0-0.4,0-0.9,0.1-1.5l0.4-2.1c0.8-4.4,3.1-6.6,7.2-6.6c0.8,0,1.5,0.1,2.2,0.4c0.6,0.3,1.2,0.6,1.6,1
			c0.4,0.4,0.7,1,0.9,1.6C153.7,140.4,153.8,141.1,153.8,141.9z M151.4,141.9c0-1-0.2-1.7-0.7-2.2c-0.5-0.5-1.2-0.7-2.3-0.7
			c-1.2,0-2.1,0.4-2.9,1.2c-0.8,0.8-1.3,1.9-1.5,3.3l-0.3,2.1c-0.1,0.6-0.2,1.1-0.2,1.6c0,1,0.2,1.7,0.7,2.2
			c0.5,0.5,1.2,0.7,2.3,0.7c0.8,0,1.5-0.2,2.1-0.6c0.6-0.4,1.1-0.9,1.5-1.6c0.4-0.7,0.7-1.5,0.8-2.3l0.3-2.1
			C151.4,142.9,151.4,142.4,151.4,141.9z"/>
		<path fill="#1A171B" d="M165,137.2v0.1l-0.2,1.1c-0.1,0.3-0.3,0.5-0.6,0.5h-0.1c-0.8,0-1.4,0.1-2,0.2c-0.6,0.2-1.2,0.4-1.9,0.9
			l-2,11.3c0,0.2-0.1,0.3-0.2,0.4c-0.1,0.1-0.3,0.2-0.4,0.2h-1.3c-0.1,0-0.2,0-0.3-0.1c-0.1-0.1-0.1-0.2-0.1-0.3v-0.1l2.4-13.8
			c0-0.2,0.1-0.3,0.2-0.4c0.1-0.1,0.3-0.2,0.4-0.2h1.3c0.3,0,0.4,0.1,0.4,0.4v0.1l-0.1,0.6c0.7-0.5,1.3-0.9,2-1.1
			c0.6-0.2,1.3-0.3,2-0.3h0.1C164.8,136.8,165,136.9,165,137.2z"/>
		<path fill="#1A171B" d="M185.1,140.7c0,0.3,0,0.7-0.1,1.2l-1.6,9.4c0,0.2-0.1,0.3-0.2,0.4c-0.1,0.1-0.3,0.2-0.4,0.2h-1.3
			c-0.1,0-0.2,0-0.3-0.1c-0.1-0.1-0.1-0.2-0.1-0.3v-0.1l1.6-9.4c0.1-0.4,0.1-0.8,0.1-1.1c0-0.7-0.2-1.2-0.5-1.4
			c-0.3-0.3-0.9-0.4-1.6-0.4c-1.2,0-2.3,0.3-3.3,0.8c0,0.1,0.1,0.4,0.1,0.7c0,0.5,0,0.9-0.1,1.4l-1.6,9.5c0,0.2-0.1,0.3-0.2,0.4
			c-0.1,0.1-0.2,0.2-0.4,0.2h-1.4c-0.2,0-0.4-0.1-0.4-0.4v-0.1l1.6-9.5c0.1-0.7,0.2-1.2,0.2-1.5c0-1-0.5-1.5-1.6-1.5
			c-0.9,0-2.1,0.3-3.6,1l-2,11.4c0,0.2-0.1,0.3-0.2,0.4c-0.1,0.1-0.2,0.2-0.4,0.2h-1.4c-0.2,0-0.4-0.1-0.4-0.4v-0.1l2.4-13.8
			c0-0.2,0.1-0.3,0.2-0.4c0.1-0.1,0.3-0.2,0.4-0.2h1.3c0.3,0,0.4,0.1,0.4,0.4v0.1l-0.1,0.5c1.4-0.8,2.7-1.2,3.9-1.2
			c0.6,0,1.1,0.1,1.6,0.3c0.5,0.2,0.9,0.5,1.1,0.9c0.8-0.5,1.6-0.8,2.3-0.9c0.7-0.2,1.4-0.3,2.2-0.3c0.9,0,1.6,0.2,2.2,0.5
			c0.6,0.3,1,0.8,1.3,1.4C185,139.3,185.1,140,185.1,140.7z"/>
		<path fill="#1A171B" d="M200.3,137.8c0,0.1,0,0.2,0,0.2l-2.3,13.3c0,0.2-0.1,0.3-0.2,0.4c-0.1,0.1-0.3,0.2-0.4,0.2h-1.1
			c-0.3,0-0.4-0.1-0.4-0.4v-0.1v-0.1l0.1-0.8c-0.5,0.4-1,0.7-1.5,0.9c-0.4,0.2-0.9,0.4-1.3,0.5c-0.4,0.1-1,0.2-1.6,0.2
			c-1.2,0-2.2-0.4-3-1.2c-0.8-0.8-1.2-2-1.2-3.6c0-0.5,0.1-1.1,0.2-1.6l0.5-2.7c0.4-2.2,1.2-3.8,2.5-4.7c1.2-1,2.8-1.4,4.6-1.4
			c1.5,0,3.1,0.2,4.7,0.6c0.2,0,0.3,0.1,0.4,0.1C200.3,137.6,200.3,137.7,200.3,137.8z M197.8,139.1c-1-0.2-1.8-0.3-2.6-0.3
			c-1.4,0-2.4,0.4-3.2,1.1c-0.7,0.7-1.3,1.8-1.5,3.3L190,146c-0.1,0.4-0.1,0.8-0.1,1.2c0,1,0.2,1.7,0.7,2.1c0.4,0.4,1,0.7,1.7,0.7
			c0.6,0,1.2-0.1,1.8-0.4c0.6-0.3,1.3-0.7,2.1-1.2L197.8,139.1z"/>
		<path fill="#1A171B" d="M211.3,137.4v0.1l-0.2,0.9c0,0.2-0.1,0.3-0.2,0.4c-0.1,0.1-0.3,0.2-0.4,0.2h-2.9l-1.7,9.5
			c-0.1,0.3-0.1,0.6-0.1,0.8c0,0.4,0.1,0.6,0.3,0.7c0.2,0.1,0.5,0.2,1,0.2h1.6c0.2,0,0.4,0.1,0.4,0.3v0.1l-0.2,0.9
			c-0.1,0.3-0.2,0.4-0.6,0.5c-0.6,0.1-1.2,0.1-1.7,0.1c-1,0-1.8-0.2-2.4-0.6c-0.6-0.4-0.9-1.1-0.9-1.9c0-0.3,0-0.7,0.1-1.1l1.7-9.4
			l-2.6-0.3c-0.1,0-0.2-0.1-0.3-0.1s-0.1-0.2-0.1-0.3v-0.1l0.1-0.7c0-0.1,0.1-0.2,0.2-0.3c0.1-0.1,0.2-0.1,0.4-0.1h2.6l0.4-2.6
			c0.1-0.3,0.3-0.5,0.6-0.5l1.4-0.2h0.1c0.2,0,0.3,0.1,0.3,0.4v0.1l-0.5,3h2.9C211.2,137,211.3,137.1,211.3,137.4z"/>
		<path fill="#1A171B" d="M217,137.4v0.1l-2.4,13.8c0,0.2-0.1,0.3-0.2,0.4c-0.1,0.1-0.3,0.2-0.4,0.2h-1.3c-0.1,0-0.2,0-0.3-0.1
			c-0.1-0.1-0.1-0.2-0.1-0.3v-0.1l2.4-13.8c0-0.1,0.1-0.3,0.2-0.4c0.1-0.1,0.3-0.2,0.4-0.2h1.3C216.9,137,217,137.1,217,137.4z
			 M218.1,131.8v0.1l-0.4,2.1c0,0.1-0.1,0.3-0.2,0.4c-0.1,0.1-0.3,0.2-0.4,0.2h-1.4c-0.1,0-0.2,0-0.3-0.1c-0.1-0.1-0.1-0.2-0.1-0.3
			v-0.1l0.4-2.1c0-0.1,0.1-0.3,0.2-0.4c0.1-0.1,0.3-0.2,0.4-0.2h1.4C217.9,131.4,218.1,131.5,218.1,131.8z"/>
		<path fill="#1A171B" d="M232.1,141.9c0,0.5,0,1-0.1,1.5l-0.3,2.1c-0.7,4.4-3.1,6.6-7.2,6.6c-1.6,0-2.8-0.5-3.7-1.4
			c-0.9-0.9-1.3-2.2-1.3-3.7c0-0.4,0-0.9,0.1-1.5l0.4-2.1c0.8-4.4,3.1-6.6,7.2-6.6c0.8,0,1.5,0.1,2.2,0.4c0.6,0.3,1.2,0.6,1.6,1
			c0.4,0.4,0.7,1,0.9,1.6C231.9,140.4,232.1,141.1,232.1,141.9z M229.7,141.9c0-1-0.2-1.7-0.7-2.2c-0.5-0.5-1.2-0.7-2.3-0.7
			c-1.2,0-2.1,0.4-2.9,1.2c-0.8,0.8-1.3,1.9-1.5,3.3l-0.3,2.1c-0.1,0.6-0.2,1.1-0.2,1.6c0,1,0.2,1.7,0.7,2.2
			c0.5,0.5,1.2,0.7,2.3,0.7c0.8,0,1.5-0.2,2.1-0.6c0.6-0.4,1.1-0.9,1.5-1.6c0.4-0.7,0.7-1.5,0.8-2.3l0.3-2.1
			C229.6,142.9,229.7,142.4,229.7,141.9z"/>
		<path fill="#1A171B" d="M247.2,141c0,0.5,0,1-0.1,1.5l-1.6,8.9c0,0.2-0.1,0.3-0.2,0.4c-0.1,0.1-0.3,0.2-0.4,0.2h-1.3
			c-0.1,0-0.2,0-0.3-0.1c-0.1-0.1-0.1-0.2-0.1-0.3v-0.1l1.6-8.9c0.1-0.6,0.1-1.1,0.1-1.5c0-0.7-0.2-1.2-0.5-1.6
			c-0.4-0.3-1-0.5-2-0.5c-0.5,0-1.1,0.1-1.7,0.2s-1.3,0.4-2.1,0.8l-2,11.4c0,0.2-0.1,0.3-0.2,0.4c-0.1,0.1-0.3,0.2-0.4,0.2h-1.3
			c-0.1,0-0.2,0-0.3-0.1c-0.1-0.1-0.1-0.2-0.1-0.3v-0.1l2.4-13.8c0-0.2,0.1-0.3,0.2-0.4c0.1-0.1,0.3-0.2,0.4-0.2h1.3
			c0.3,0,0.4,0.1,0.4,0.4v0.1l-0.1,0.6c0.8-0.4,1.5-0.8,2.1-1c0.6-0.2,1.4-0.3,2.2-0.3c1.4,0,2.4,0.4,3.1,1.2
			C246.9,138.7,247.2,139.7,247.2,141z"/>
		<path fill="#1A171B" d="M273.6,142v0.1c-0.6,2.8-1.6,5-2.9,6.6l2,2.7c0.1,0.1,0.1,0.2,0.1,0.2c0,0.1-0.1,0.2-0.3,0.2h-1.9
			c-0.2,0-0.3-0.1-0.4-0.2l-1.1-1.5c-0.8,0.6-1.7,1-2.6,1.4c-1,0.3-2,0.5-3.1,0.5c-1.8,0-3.2-0.3-4.2-1c-1-0.7-1.6-1.7-1.6-3.2
			c0-0.7,0.1-1.4,0.3-2c0.2-0.6,0.5-1.1,1-1.6c0.4-0.5,0.9-0.9,1.6-1.4c0.6-0.5,1.3-0.9,2.1-1.3l-0.3-0.4c-0.5-0.7-0.8-1.2-1.1-1.6
			c-0.2-0.4-0.4-0.9-0.6-1.3c-0.1-0.5-0.2-1-0.2-1.5c0-0.9,0.1-1.6,0.4-2.3c0.3-0.7,0.7-1.2,1.2-1.6c0.5-0.4,1.1-0.7,1.8-0.9
			c0.7-0.2,1.5-0.3,2.4-0.3c1.1,0,2.1,0.1,2.9,0.4c0.8,0.3,1.4,0.7,1.8,1.3c0.4,0.6,0.6,1.2,0.6,2c0,0.9-0.2,1.6-0.5,2.3
			c-0.4,0.7-0.9,1.3-1.6,1.9c-0.7,0.6-1.7,1.2-3,2l-0.9,0.5l3.9,5.2c0.5-0.7,0.9-1.5,1.2-2.3c0.3-0.9,0.6-1.8,0.8-2.8
			c0-0.1,0.1-0.3,0.1-0.3c0.1-0.1,0.2-0.1,0.3-0.1h1.2C273.5,141.7,273.6,141.8,273.6,142z M268.1,148.8l-4.4-5.8
			c-0.8,0.4-1.4,0.9-1.9,1.2c-0.5,0.4-0.9,0.9-1.2,1.4c-0.3,0.6-0.5,1.2-0.5,2c0,0.9,0.3,1.5,0.9,1.9c0.6,0.4,1.5,0.5,2.8,0.5
			c0.8,0,1.6-0.1,2.4-0.4C266.8,149.6,267.5,149.2,268.1,148.8z M269.4,135.3c0-0.6-0.2-1.1-0.7-1.4c-0.5-0.3-1.3-0.5-2.4-0.5
			c-1.3,0-2.2,0.3-2.8,0.8c-0.6,0.5-0.9,1.4-0.9,2.6c0,0.6,0.1,1.1,0.3,1.5c0.2,0.5,0.6,1.1,1.2,1.9l0.2,0.3l1.1-0.6
			c1.1-0.6,1.9-1.1,2.3-1.4c0.5-0.3,0.8-0.7,1.1-1.2C269.3,136.7,269.4,136.1,269.4,135.3z"/>
		<path fill="#1A171B" d="M299,132.3L299,132.3l-0.2,1.4c0,0.2-0.2,0.3-0.4,0.3h-0.1c-0.8-0.1-1.6-0.1-2.3-0.2
			c-0.7,0-1.4-0.1-2.1-0.1c-1.4,0-2.6,0.5-3.7,1.5c-1,1-1.7,2.5-2.1,4.7l-0.7,3.8c-0.1,0.7-0.2,1.4-0.2,2c0,1.4,0.3,2.5,1,3.1
			c0.7,0.7,1.6,1,2.8,1c1.3,0,2.8-0.1,4.5-0.2h0.1c0.2,0,0.4,0.1,0.4,0.3v0.1l-0.2,1.1c-0.1,0.3-0.3,0.5-0.6,0.5
			c-0.6,0.1-1.3,0.2-2,0.2c-0.7,0.1-1.6,0.1-2.6,0.1c-1,0-1.9-0.2-2.8-0.6c-0.9-0.4-1.6-1.1-2.2-2c-0.6-0.9-0.9-2.1-0.9-3.6
			c0-0.7,0.1-1.4,0.2-2.1l0.7-3.8c0.4-2.1,1-3.8,1.9-5c0.9-1.2,1.9-2.1,3-2.6c1.1-0.5,2.3-0.7,3.7-0.7c1.3,0,2.8,0.1,4.5,0.4
			C298.9,132.1,299,132.2,299,132.3z"/>
		<path fill="#1A171B" d="M311.7,141.9c0,0.5,0,1-0.1,1.5l-0.3,2.1c-0.7,4.4-3.1,6.6-7.2,6.6c-1.6,0-2.8-0.5-3.7-1.4
			c-0.9-0.9-1.3-2.2-1.3-3.7c0-0.4,0-0.9,0.1-1.5l0.4-2.1c0.8-4.4,3.1-6.6,7.2-6.6c0.8,0,1.5,0.1,2.2,0.4c0.6,0.3,1.2,0.6,1.6,1
			c0.4,0.4,0.7,1,0.9,1.6C311.6,140.4,311.7,141.1,311.7,141.9z M309.4,141.9c0-1-0.2-1.7-0.7-2.2c-0.5-0.5-1.2-0.7-2.3-0.7
			c-1.2,0-2.1,0.4-2.9,1.2c-0.8,0.8-1.3,1.9-1.5,3.3l-0.3,2.1c-0.1,0.6-0.2,1.1-0.2,1.6c0,1,0.2,1.7,0.7,2.2
			c0.5,0.5,1.2,0.7,2.3,0.7c0.8,0,1.5-0.2,2.1-0.6c0.6-0.4,1.1-0.9,1.5-1.6c0.4-0.7,0.7-1.5,0.8-2.3l0.3-2.1
			C309.3,142.9,309.4,142.4,309.4,141.9z"/>
		<path fill="#1A171B" d="M333.5,140.7c0,0.3,0,0.7-0.1,1.2l-1.6,9.4c0,0.2-0.1,0.3-0.2,0.4c-0.1,0.1-0.3,0.2-0.4,0.2h-1.3
			c-0.1,0-0.2,0-0.3-0.1c-0.1-0.1-0.1-0.2-0.1-0.3v-0.1l1.6-9.4c0.1-0.4,0.1-0.8,0.1-1.1c0-0.7-0.2-1.2-0.5-1.4
			c-0.3-0.3-0.9-0.4-1.6-0.4c-1.2,0-2.3,0.3-3.3,0.8c0,0.1,0.1,0.4,0.1,0.7c0,0.5,0,0.9-0.1,1.4l-1.6,9.5c0,0.2-0.1,0.3-0.2,0.4
			c-0.1,0.1-0.2,0.2-0.4,0.2h-1.4c-0.2,0-0.4-0.1-0.4-0.4v-0.1l1.6-9.5c0.1-0.7,0.2-1.2,0.2-1.5c0-1-0.5-1.5-1.6-1.5
			c-0.9,0-2.1,0.3-3.6,1l-2,11.4c0,0.2-0.1,0.3-0.2,0.4c-0.1,0.1-0.2,0.2-0.4,0.2h-1.4c-0.2,0-0.4-0.1-0.4-0.4v-0.1l2.4-13.8
			c0-0.2,0.1-0.3,0.2-0.4c0.1-0.1,0.3-0.2,0.4-0.2h1.3c0.3,0,0.4,0.1,0.4,0.4v0.1l-0.1,0.5c1.4-0.8,2.7-1.2,3.9-1.2
			c0.6,0,1.1,0.1,1.6,0.3c0.5,0.2,0.9,0.5,1.1,0.9c0.8-0.5,1.6-0.8,2.3-0.9c0.7-0.2,1.4-0.3,2.2-0.3c0.9,0,1.6,0.2,2.2,0.5
			c0.6,0.3,1,0.8,1.3,1.4C333.3,139.3,333.5,140,333.5,140.7z"/>
		<path fill="#1A171B" d="M355.4,140.7c0,0.3,0,0.7-0.1,1.2l-1.6,9.4c0,0.2-0.1,0.3-0.2,0.4c-0.1,0.1-0.3,0.2-0.4,0.2h-1.3
			c-0.1,0-0.2,0-0.3-0.1c-0.1-0.1-0.1-0.2-0.1-0.3v-0.1l1.6-9.4c0.1-0.4,0.1-0.8,0.1-1.1c0-0.7-0.2-1.2-0.5-1.4
			c-0.3-0.3-0.9-0.4-1.6-0.4c-1.2,0-2.3,0.3-3.3,0.8c0,0.1,0.1,0.4,0.1,0.7c0,0.5,0,0.9-0.1,1.4l-1.6,9.5c0,0.2-0.1,0.3-0.2,0.4
			c-0.1,0.1-0.2,0.2-0.4,0.2h-1.4c-0.2,0-0.4-0.1-0.4-0.4v-0.1l1.6-9.5c0.1-0.7,0.2-1.2,0.2-1.5c0-1-0.5-1.5-1.6-1.5
			c-0.9,0-2.1,0.3-3.6,1l-2,11.4c0,0.2-0.1,0.3-0.2,0.4c-0.1,0.1-0.2,0.2-0.4,0.2h-1.4c-0.2,0-0.4-0.1-0.4-0.4v-0.1l2.4-13.8
			c0-0.2,0.1-0.3,0.2-0.4c0.1-0.1,0.3-0.2,0.4-0.2h1.3c0.3,0,0.4,0.1,0.4,0.4v0.1l-0.1,0.5c1.4-0.8,2.7-1.2,3.9-1.2
			c0.6,0,1.1,0.1,1.6,0.3c0.5,0.2,0.9,0.5,1.1,0.9c0.8-0.5,1.6-0.8,2.3-0.9c0.7-0.2,1.4-0.3,2.2-0.3c0.9,0,1.6,0.2,2.2,0.5
			c0.6,0.3,1,0.8,1.3,1.4C355.2,139.3,355.4,140,355.4,140.7z"/>
		<path fill="#1A171B" d="M371.4,137.4v0.1l-2.4,13.8c0,0.2-0.1,0.3-0.2,0.4c-0.1,0.1-0.3,0.2-0.4,0.2h-1.3c-0.3,0-0.4-0.1-0.4-0.4
			v-0.1l0.1-0.5c-0.8,0.4-1.6,0.7-2.3,0.9c-0.7,0.2-1.4,0.3-2.2,0.3c-0.8,0-1.5-0.2-2.1-0.5c-0.6-0.3-1.1-0.8-1.4-1.5
			c-0.3-0.6-0.5-1.4-0.5-2.3c0-0.5,0.1-1.1,0.2-1.6l1.5-8.6c0-0.1,0.1-0.3,0.2-0.4c0.1-0.1,0.3-0.2,0.4-0.2h1.3
			c0.3,0,0.4,0.1,0.4,0.4v0.1l-1.6,8.9c-0.1,0.6-0.2,1.1-0.2,1.5c0,0.7,0.2,1.3,0.6,1.6c0.4,0.3,1,0.4,1.9,0.4c1.1,0,2.4-0.3,3.8-1
			l2-11.4c0-0.1,0.1-0.3,0.2-0.4c0.1-0.1,0.3-0.2,0.4-0.2h1.3C371.3,137,371.4,137.1,371.4,137.4z"/>
		<path fill="#1A171B" d="M386.2,141c0,0.5,0,1-0.1,1.5l-1.6,8.9c0,0.2-0.1,0.3-0.2,0.4c-0.1,0.1-0.3,0.2-0.4,0.2h-1.3
			c-0.1,0-0.2,0-0.3-0.1c-0.1-0.1-0.1-0.2-0.1-0.3v-0.1l1.6-8.9c0.1-0.6,0.1-1.1,0.1-1.5c0-0.7-0.2-1.2-0.5-1.6
			c-0.4-0.3-1-0.5-2-0.5c-0.5,0-1.1,0.1-1.7,0.2s-1.3,0.4-2.1,0.8l-2,11.4c0,0.2-0.1,0.3-0.2,0.4c-0.1,0.1-0.3,0.2-0.4,0.2h-1.3
			c-0.1,0-0.2,0-0.3-0.1c-0.1-0.1-0.1-0.2-0.1-0.3v-0.1l2.4-13.8c0-0.2,0.1-0.3,0.2-0.4c0.1-0.1,0.3-0.2,0.4-0.2h1.3
			c0.3,0,0.4,0.1,0.4,0.4v0.1l-0.1,0.6c0.8-0.4,1.5-0.8,2.1-1c0.6-0.2,1.4-0.3,2.2-0.3c1.4,0,2.4,0.4,3.1,1.2
			C385.8,138.7,386.2,139.7,386.2,141z"/>
		<path fill="#1A171B" d="M393.6,137.4v0.1l-2.4,13.8c0,0.2-0.1,0.3-0.2,0.4c-0.1,0.1-0.3,0.2-0.4,0.2h-1.3c-0.1,0-0.2,0-0.3-0.1
			c-0.1-0.1-0.1-0.2-0.1-0.3v-0.1l2.4-13.8c0-0.1,0.1-0.3,0.2-0.4c0.1-0.1,0.3-0.2,0.4-0.2h1.3C393.5,137,393.6,137.1,393.6,137.4z
			 M394.7,131.8v0.1l-0.4,2.1c0,0.1-0.1,0.3-0.2,0.4c-0.1,0.1-0.3,0.2-0.4,0.2h-1.4c-0.1,0-0.2,0-0.3-0.1c-0.1-0.1-0.1-0.2-0.1-0.3
			v-0.1l0.4-2.1c0-0.1,0.1-0.3,0.2-0.4c0.1-0.1,0.3-0.2,0.4-0.2h1.4C394.5,131.4,394.7,131.5,394.7,131.8z"/>
		<path fill="#1A171B" d="M407.2,137.5C407.2,137.6,407.2,137.6,407.2,137.5c0,0.1,0,0.1,0,0.2l-0.2,1c-0.1,0.3-0.2,0.4-0.6,0.4
			h-0.1c-1.1-0.1-2.2-0.2-3.3-0.2c-1.1,0-2,0.4-2.7,1.2c-0.7,0.8-1.2,1.9-1.5,3.3l-0.3,2.1c-0.1,0.6-0.2,1.1-0.2,1.6
			c0,1,0.2,1.7,0.7,2.2c0.5,0.5,1.1,0.7,2,0.7c0.6,0,1.2,0,1.7,0c0.5,0,1.1-0.1,1.7-0.2h0.1c0.3,0,0.4,0.1,0.4,0.3v0.1l-0.2,1
			c0,0.3-0.3,0.5-0.6,0.6c-1.1,0.2-2.2,0.3-3.4,0.3c-1,0-1.9-0.2-2.6-0.7c-0.7-0.4-1.2-1-1.6-1.8c-0.4-0.8-0.5-1.6-0.5-2.6
			c0-0.4,0-0.9,0.1-1.5l0.4-2.1c0.2-1.4,0.7-2.7,1.3-3.6c0.6-1,1.4-1.7,2.3-2.2c0.9-0.5,2-0.7,3.3-0.7c1.1,0,2.2,0.1,3.3,0.3
			c0.2,0,0.3,0.1,0.3,0.1C407.2,137.3,407.2,137.4,407.2,137.5z"/>
		<path fill="#1A171B" d="M421.2,137.8c0,0.1,0,0.2,0,0.2l-2.3,13.3c0,0.2-0.1,0.3-0.2,0.4c-0.1,0.1-0.3,0.2-0.4,0.2h-1.1
			c-0.3,0-0.4-0.1-0.4-0.4v-0.1v-0.1l0.1-0.8c-0.5,0.4-1,0.7-1.5,0.9c-0.4,0.2-0.9,0.4-1.3,0.5c-0.4,0.1-1,0.2-1.6,0.2
			c-1.2,0-2.2-0.4-3-1.2c-0.8-0.8-1.2-2-1.2-3.6c0-0.5,0.1-1.1,0.2-1.6l0.5-2.7c0.4-2.2,1.2-3.8,2.5-4.7c1.2-1,2.8-1.4,4.6-1.4
			c1.5,0,3.1,0.2,4.7,0.6c0.2,0,0.3,0.1,0.4,0.1C421.1,137.6,421.2,137.7,421.2,137.8z M418.6,139.1c-1-0.2-1.8-0.3-2.6-0.3
			c-1.4,0-2.4,0.4-3.2,1.1c-0.7,0.7-1.3,1.8-1.5,3.3l-0.5,2.8c-0.1,0.4-0.1,0.8-0.1,1.2c0,1,0.2,1.7,0.7,2.1c0.4,0.4,1,0.7,1.7,0.7
			c0.6,0,1.2-0.1,1.8-0.4c0.6-0.3,1.3-0.7,2.1-1.2L418.6,139.1z"/>
		<path fill="#1A171B" d="M432.2,137.4v0.1l-0.2,0.9c0,0.2-0.1,0.3-0.2,0.4c-0.1,0.1-0.3,0.2-0.4,0.2h-2.9l-1.7,9.5
			c-0.1,0.3-0.1,0.6-0.1,0.8c0,0.4,0.1,0.6,0.3,0.7c0.2,0.1,0.5,0.2,1,0.2h1.6c0.2,0,0.4,0.1,0.4,0.3v0.1l-0.2,0.9
			c-0.1,0.3-0.2,0.4-0.6,0.5c-0.6,0.1-1.2,0.1-1.7,0.1c-1,0-1.8-0.2-2.4-0.6c-0.6-0.4-0.9-1.1-0.9-1.9c0-0.3,0-0.7,0.1-1.1l1.7-9.4
			l-2.6-0.3c-0.1,0-0.2-0.1-0.3-0.1c-0.1-0.1-0.1-0.2-0.1-0.3v-0.1l0.1-0.7c0-0.1,0.1-0.2,0.2-0.3c0.1-0.1,0.2-0.1,0.4-0.1h2.6
			l0.4-2.6c0.1-0.3,0.3-0.5,0.6-0.5l1.4-0.2h0.1c0.2,0,0.3,0.1,0.3,0.4v0.1l-0.5,3h2.9C432,137,432.2,137.1,432.2,137.4z"/>
		<path fill="#1A171B" d="M437.8,137.4v0.1l-2.4,13.8c0,0.2-0.1,0.3-0.2,0.4c-0.1,0.1-0.3,0.2-0.4,0.2h-1.3c-0.1,0-0.2,0-0.3-0.1
			c-0.1-0.1-0.1-0.2-0.1-0.3v-0.1l2.4-13.8c0-0.1,0.1-0.3,0.2-0.4c0.1-0.1,0.3-0.2,0.4-0.2h1.3C437.7,137,437.8,137.1,437.8,137.4z
			 M438.9,131.8v0.1l-0.4,2.1c0,0.1-0.1,0.3-0.2,0.4c-0.1,0.1-0.3,0.2-0.4,0.2h-1.4c-0.1,0-0.2,0-0.3-0.1c-0.1-0.1-0.1-0.2-0.1-0.3
			v-0.1l0.4-2.1c0-0.1,0.1-0.3,0.2-0.4c0.1-0.1,0.3-0.2,0.4-0.2h1.4C438.7,131.4,438.9,131.5,438.9,131.8z"/>
		<path fill="#1A171B" d="M452.9,141.9c0,0.5,0,1-0.1,1.5l-0.3,2.1c-0.7,4.4-3.1,6.6-7.2,6.6c-1.6,0-2.8-0.5-3.7-1.4
			c-0.9-0.9-1.3-2.2-1.3-3.7c0-0.4,0-0.9,0.1-1.5l0.4-2.1c0.8-4.4,3.1-6.6,7.2-6.6c0.8,0,1.5,0.1,2.2,0.4c0.6,0.3,1.2,0.6,1.6,1
			c0.4,0.4,0.7,1,0.9,1.6C452.8,140.4,452.9,141.1,452.9,141.9z M450.5,141.9c0-1-0.2-1.7-0.7-2.2c-0.5-0.5-1.2-0.7-2.3-0.7
			c-1.2,0-2.1,0.4-2.9,1.2c-0.8,0.8-1.3,1.9-1.5,3.3l-0.3,2.1c-0.1,0.6-0.2,1.1-0.2,1.6c0,1,0.2,1.7,0.7,2.2
			c0.5,0.5,1.2,0.7,2.3,0.7c0.8,0,1.5-0.2,2.1-0.6c0.6-0.4,1.1-0.9,1.5-1.6c0.4-0.7,0.7-1.5,0.8-2.3l0.3-2.1
			C450.4,142.9,450.5,142.4,450.5,141.9z"/>
		<path fill="#1A171B" d="M468,141c0,0.5,0,1-0.1,1.5l-1.6,8.9c0,0.2-0.1,0.3-0.2,0.4c-0.1,0.1-0.3,0.2-0.4,0.2h-1.3
			c-0.1,0-0.2,0-0.3-0.1c-0.1-0.1-0.1-0.2-0.1-0.3v-0.1l1.6-8.9c0.1-0.6,0.1-1.1,0.1-1.5c0-0.7-0.2-1.2-0.5-1.6
			c-0.4-0.3-1-0.5-2-0.5c-0.5,0-1.1,0.1-1.7,0.2s-1.3,0.4-2.1,0.8l-2,11.4c0,0.2-0.1,0.3-0.2,0.4c-0.1,0.1-0.3,0.2-0.4,0.2h-1.3
			c-0.1,0-0.2,0-0.3-0.1c-0.1-0.1-0.1-0.2-0.1-0.3v-0.1l2.4-13.8c0-0.2,0.1-0.3,0.2-0.4c0.1-0.1,0.3-0.2,0.4-0.2h1.3
			c0.3,0,0.4,0.1,0.4,0.4v0.1l-0.1,0.6c0.8-0.4,1.5-0.8,2.1-1c0.6-0.2,1.4-0.3,2.2-0.3c1.4,0,2.4,0.4,3.1,1.2
			C467.7,138.7,468,139.7,468,141z"/>
		<path fill="#1A171B" d="M493.3,132.2L493.3,132.2l-0.2,1.3c-0.1,0.3-0.3,0.4-0.6,0.4h-5.3l-3,17.4c0,0.2-0.1,0.3-0.2,0.4
			c-0.1,0.1-0.2,0.2-0.4,0.2h-1.5c-0.3,0-0.4-0.1-0.4-0.4v-0.1l3.1-17.4h-5.3c-0.3,0-0.5-0.1-0.5-0.4v-0.1l0.2-1.2
			c0-0.1,0.1-0.2,0.2-0.3c0.1-0.1,0.3-0.1,0.4-0.1h13C493.2,131.8,493.3,131.9,493.3,132.2z"/>
		<path fill="#1A171B" d="M504,141.8c0,0.5-0.1,1.1-0.2,1.6l-0.2,1.1c-0.1,0.4-0.3,0.6-0.6,0.6h-9l-0.1,0.3
			c-0.1,0.5-0.2,1.1-0.2,1.6c0,1,0.3,1.7,0.9,2.2c0.6,0.5,1.4,0.7,2.5,0.7c0.7,0,1.4,0,2.3-0.1c0.9-0.1,1.7-0.2,2.3-0.3h0.1h0.1
			c0.2,0,0.4,0.1,0.4,0.3v0.1v0l-0.2,0.9c0,0.2-0.1,0.4-0.2,0.4c-0.1,0.1-0.2,0.1-0.5,0.2c-0.8,0.1-1.5,0.2-2.3,0.3
			c-0.8,0.1-1.6,0.1-2.4,0.1c-1,0-1.8-0.2-2.6-0.5c-0.8-0.3-1.4-0.9-1.9-1.6c-0.5-0.7-0.7-1.7-0.7-2.9c0-0.5,0.1-1.1,0.2-1.7
			l0.3-1.9c0.4-2.2,1.2-3.8,2.5-5c1.2-1.1,2.8-1.7,4.7-1.7c1.1,0,2,0.2,2.7,0.7c0.7,0.4,1.3,1,1.7,1.8
			C503.9,140,504,140.9,504,141.8z M501.7,141.7c0-1.9-1-2.9-2.9-2.9c-1.1,0-2.1,0.4-2.9,1.2c-0.8,0.8-1.3,1.9-1.5,3.1l0,0.1h7.2
			l0-0.1C501.6,142.7,501.7,142.2,501.7,141.7z"/>
		<path fill="#1A171B" d="M517.7,137.5C517.7,137.6,517.7,137.6,517.7,137.5c0,0.1,0,0.1,0,0.2l-0.2,1c-0.1,0.3-0.2,0.4-0.6,0.4
			h-0.1c-1.1-0.1-2.2-0.2-3.3-0.2c-1.1,0-2,0.4-2.7,1.2c-0.7,0.8-1.2,1.9-1.5,3.3l-0.3,2.1c-0.1,0.6-0.2,1.1-0.2,1.6
			c0,1,0.2,1.7,0.7,2.2c0.5,0.5,1.1,0.7,2,0.7c0.6,0,1.2,0,1.7,0c0.5,0,1.1-0.1,1.7-0.2h0.1c0.3,0,0.4,0.1,0.4,0.3v0.1l-0.2,1
			c0,0.3-0.3,0.5-0.6,0.6c-1.1,0.2-2.2,0.3-3.4,0.3c-1,0-1.9-0.2-2.6-0.7c-0.7-0.4-1.2-1-1.6-1.8c-0.4-0.8-0.5-1.6-0.5-2.6
			c0-0.4,0-0.9,0.1-1.5l0.4-2.1c0.2-1.4,0.7-2.7,1.3-3.6c0.6-1,1.4-1.7,2.3-2.2c0.9-0.5,2-0.7,3.3-0.7c1.1,0,2.2,0.1,3.3,0.3
			c0.2,0,0.3,0.1,0.3,0.1C517.6,137.3,517.7,137.4,517.7,137.5z"/>
		<path fill="#1A171B" d="M531.8,141.1c0,0.3,0,0.7-0.1,1.1l-1.6,9.1c0,0.2-0.1,0.3-0.2,0.4c-0.1,0.1-0.3,0.2-0.4,0.2h-1.3
			c-0.1,0-0.2,0-0.3-0.1c-0.1-0.1-0.1-0.2-0.1-0.3v-0.1v0l1.6-9.1c0.1-0.4,0.1-0.7,0.1-1.1c0-0.8-0.2-1.4-0.7-1.8
			c-0.5-0.4-1.2-0.5-2.3-0.5c-1.2,0-2.2,0.1-3.2,0.4l-2.1,12.1c0,0.2-0.1,0.3-0.2,0.4c-0.1,0.1-0.3,0.2-0.4,0.2h-1.3
			c-0.1,0-0.2,0-0.3-0.1c-0.1-0.1-0.1-0.2-0.1-0.3v-0.1v0l3.4-19.2c0-0.1,0.1-0.3,0.2-0.4c0.1-0.1,0.2-0.1,0.4-0.1h1.4
			c0.3,0,0.4,0.1,0.4,0.4v0.1v0l-0.9,5.1c1.2-0.3,2.2-0.4,3.2-0.4c1.1,0,2,0.2,2.8,0.6c0.8,0.4,1.3,0.9,1.7,1.5
			C531.6,139.5,531.8,140.3,531.8,141.1z"/>
		<path fill="#1A171B" d="M547.2,141c0,0.5,0,1-0.1,1.5l-1.6,8.9c0,0.2-0.1,0.3-0.2,0.4c-0.1,0.1-0.3,0.2-0.4,0.2h-1.3
			c-0.1,0-0.2,0-0.3-0.1c-0.1-0.1-0.1-0.2-0.1-0.3v-0.1l1.6-8.9c0.1-0.6,0.1-1.1,0.1-1.5c0-0.7-0.2-1.2-0.5-1.6
			c-0.4-0.3-1-0.5-2-0.5c-0.5,0-1.1,0.1-1.7,0.2s-1.3,0.4-2.1,0.8l-2,11.4c0,0.2-0.1,0.3-0.2,0.4c-0.1,0.1-0.3,0.2-0.4,0.2h-1.3
			c-0.1,0-0.2,0-0.3-0.1c-0.1-0.1-0.1-0.2-0.1-0.3v-0.1l2.4-13.8c0-0.2,0.1-0.3,0.2-0.4c0.1-0.1,0.3-0.2,0.4-0.2h1.3
			c0.3,0,0.4,0.1,0.4,0.4v0.1l-0.1,0.6c0.8-0.4,1.5-0.8,2.1-1c0.6-0.2,1.4-0.3,2.2-0.3c1.4,0,2.4,0.4,3.1,1.2
			C546.9,138.7,547.2,139.7,547.2,141z"/>
		<path fill="#1A171B" d="M562.6,141.9c0,0.5,0,1-0.1,1.5l-0.3,2.1c-0.7,4.4-3.1,6.6-7.2,6.6c-1.6,0-2.8-0.5-3.7-1.4
			c-0.9-0.9-1.3-2.2-1.3-3.7c0-0.4,0-0.9,0.1-1.5l0.4-2.1c0.8-4.4,3.1-6.6,7.2-6.6c0.8,0,1.5,0.1,2.2,0.4c0.6,0.3,1.2,0.6,1.6,1
			c0.4,0.4,0.7,1,0.9,1.6C562.5,140.4,562.6,141.1,562.6,141.9z M560.3,141.9c0-1-0.2-1.7-0.7-2.2c-0.5-0.5-1.2-0.7-2.3-0.7
			c-1.2,0-2.1,0.4-2.9,1.2c-0.8,0.8-1.3,1.9-1.5,3.3l-0.3,2.1c-0.1,0.6-0.2,1.1-0.2,1.6c0,1,0.2,1.7,0.7,2.2
			c0.5,0.5,1.2,0.7,2.3,0.7c0.8,0,1.5-0.2,2.1-0.6c0.6-0.4,1.1-0.9,1.5-1.6c0.4-0.7,0.7-1.5,0.8-2.3l0.3-2.1
			C560.2,142.9,560.3,142.4,560.3,141.9z"/>
		<path fill="#1A171B" d="M570.7,132v0.1l-3.4,19.2c0,0.2-0.1,0.3-0.2,0.4c-0.1,0.1-0.2,0.1-0.4,0.1h-1.4c-0.3,0-0.4-0.1-0.4-0.4
			v-0.1l3.4-19.2c0.1-0.3,0.3-0.5,0.6-0.5h1.4C570.6,131.5,570.7,131.7,570.7,132z"/>
		<path fill="#1A171B" d="M584.8,141.9c0,0.5,0,1-0.1,1.5l-0.3,2.1c-0.7,4.4-3.1,6.6-7.2,6.6c-1.6,0-2.8-0.5-3.7-1.4
			c-0.9-0.9-1.3-2.2-1.3-3.7c0-0.4,0-0.9,0.1-1.5l0.4-2.1c0.8-4.4,3.1-6.6,7.2-6.6c0.8,0,1.5,0.1,2.2,0.4c0.6,0.3,1.2,0.6,1.6,1
			c0.4,0.4,0.7,1,0.9,1.6C584.7,140.4,584.8,141.1,584.8,141.9z M582.4,141.9c0-1-0.2-1.7-0.7-2.2c-0.5-0.5-1.2-0.7-2.3-0.7
			c-1.2,0-2.1,0.4-2.9,1.2c-0.8,0.8-1.3,1.9-1.5,3.3l-0.3,2.1c-0.1,0.6-0.2,1.1-0.2,1.6c0,1,0.2,1.7,0.7,2.2
			c0.5,0.5,1.2,0.7,2.3,0.7c0.8,0,1.5-0.2,2.1-0.6c0.6-0.4,1.1-0.9,1.5-1.6c0.4-0.7,0.7-1.5,0.8-2.3l0.3-2.1
			C582.3,142.9,582.4,142.4,582.4,141.9z"/>
		<path fill="#1A171B" d="M600.1,137.9C600.1,137.9,600.1,137.9,600.1,137.9c0,0.1,0,0.2,0,0.2l-2.4,13.8c-0.2,1-0.4,1.9-0.8,2.6
			c-0.3,0.7-0.7,1.2-1.3,1.6c-0.5,0.4-1.1,0.7-1.9,0.9c-0.7,0.2-1.6,0.2-2.6,0.2c-0.9,0-1.8,0-2.6-0.1c-0.8-0.1-1.4-0.2-1.9-0.3
			c-0.3-0.1-0.5-0.2-0.5-0.4c0,0,0,0,0-0.1c0,0,0,0,0-0.1l0.1-0.8c0-0.1,0.1-0.2,0.2-0.3c0.1-0.1,0.2-0.1,0.4-0.1h0.1h0
			c1.7,0.2,3.2,0.3,4.5,0.3c0.8,0,1.4-0.1,1.9-0.3c0.5-0.2,0.9-0.5,1.1-1c0.3-0.5,0.5-1.1,0.6-2l0.1-0.3c-0.4,0.1-0.9,0.2-1.5,0.3
			c-0.6,0.1-1.1,0.1-1.5,0.1c-1.5,0-2.8-0.4-3.7-1.2c-0.9-0.8-1.4-2-1.4-3.6c0-0.6,0.1-1.2,0.2-1.8l0.4-2c0.2-1.2,0.5-2.2,0.9-3.1
			c0.4-0.8,0.9-1.5,1.5-2c0.6-0.5,1.3-0.9,2-1.1c0.8-0.2,1.7-0.4,2.7-0.4c1.4,0,3,0.2,4.7,0.6C600,137.5,600.1,137.7,600.1,137.9z
			 M597.5,139.1c-1.1-0.2-2.1-0.3-3-0.3c-1.3,0-2.2,0.4-3,1.1c-0.7,0.7-1.2,1.9-1.5,3.5l-0.3,2c-0.1,0.7-0.2,1.3-0.2,1.9
			c0,1,0.2,1.7,0.7,2.1c0.5,0.4,1.3,0.6,2.3,0.6c0.4,0,1,0,1.6-0.1c0.6-0.1,1.1-0.1,1.5-0.2L597.5,139.1z"/>
		<path fill="#1A171B" d="M615.9,137.3c0,0.1,0,0.2-0.1,0.3l-7.2,15.5c-0.7,1.5-1.4,2.6-2.2,3.1c-0.8,0.6-1.9,0.9-3.4,0.9
			c-0.8,0-1.5-0.1-2.2-0.3c-0.3-0.1-0.5-0.2-0.5-0.4v-0.1l0.2-1c0.1-0.3,0.3-0.4,0.6-0.4h0.1c1.1,0.1,1.9,0.2,2.4,0.2
			c0.8,0,1.4-0.2,1.8-0.5c0.4-0.3,0.9-0.9,1.2-1.8l0.5-1.1h-0.3c-0.5,0-0.9-0.2-1.2-0.5c-0.3-0.3-0.5-0.9-0.6-1.7l-1.4-12.1v-0.1
			c0-0.4,0.2-0.6,0.6-0.6h1.4c0.1,0,0.2,0,0.3,0.1c0.1,0.1,0.1,0.2,0.1,0.3l1.1,11.7c0,0.4,0.2,0.6,0.4,0.6h0.4l5.5-12.3
			c0-0.1,0.1-0.2,0.2-0.3c0.1-0.1,0.2-0.1,0.4-0.1h1.6c0.1,0,0.2,0,0.3,0.1C615.8,137.2,615.9,137.2,615.9,137.3z"/>
	</g>
</g>
</svg>
